<svg xmlns="http://www.w3.org/2000/svg" viewBox="0 0 69.76 58.73"><path d="M46.3 12.38l-.18-.14-.18-.12A99.62 99.62 0 0 0 30.73 3.5a44.47 44.47 0 0 0-9.39-3h-.19L21 .44A16.86 16.86 0 0 0 7.53 3.85C2.58 7.9.79 14.1.23 20.22 0 23.33 0 26.36 0 29.48 0 38.4-.09 48.87 7.53 55.1A16.86 16.86 0 0 0 21 58.51h.37a38.86 38.86 0 0 0 5.76-1.57c6.67-2.35 13.28-6.33 18.84-10.05l.18-.12.18-.13c5.7-4.19 11.39-9.44 11.4-17.1S52 16.56 46.3 12.38z" fill="#FF6B9C" opacity=".8"/><path d="M69.54 36.74v-.38c-1.6-8.52-6.83-17.43-11.62-24.6l-.13-.18-.13-.18C53.42 5.7 48.17 0 40.51 0a15.9 15.9 0 0 0-9.78 3.5 38 38 0 0 0-7.33 7.9l-.13.18-.12.18c-4.8 7.17-10 16.08-11.63 24.6v.38a16.85 16.85 0 0 0 3.42 13.43C18 54 22.43 55.94 27.1 56.88a41.66 41.66 0 0 0 4.14.59c3.12.28 6.14.23 9.26.23 8.92 0 19.39.09 25.62-7.53a16.89 16.89 0 0 0 3.42-13.43z" fill="#9D4EDD" opacity=".8"/></svg>